<svg xmlns="http://www.w3.org/2000/svg" xmlns:xlink="http://www.w3.org/1999/xlink" width="755.682" height="67.269" viewBox="0 0 755.682 67.269">
  <defs>
    <linearGradient id="linear-gradient" y1="0.197" x2="0.973" y2="1" gradientUnits="objectBoundingBox">
      <stop offset="0" stop-color="#00b2ef"/>
      <stop offset="0.4" stop-color="#ffd670"/>
      <stop offset="0.706" stop-color="#ff9770"/>
      <stop offset="1" stop-color="#ff70a6"/>
    </linearGradient>
    <clipPath id="clip-path">
      <path id="Tracciato_113" data-name="Tracciato 113" d="M278.466,2.677v57.19L229.288,2.911l-.177-.2h-2.529v61.3h2.69V7L278.322,63.8l.177.205h2.654V2.677ZM424.906,5.4h24.416c11.531,0,18.143,5.072,18.143,13.918,0,5.161-2.357,13.822-18.143,13.822H424.906Zm-2.69-2.721V64h2.69V35.612h21.9L466.887,64h3.792L450.651,35.75c12.482-.39,19.6-6.33,19.6-16.434,0-10.42-7.837-16.639-20.965-16.639Zm233.9,0v30.04H609.172V2.677h-2.691V64h2.691V35.455h46.943L656.12,64h2.691V2.677Zm95.929,0L725.544,32.333,699.121,2.873l-.177-.2H695.3l28.813,32.156V64h2.779V34.833L755.682,2.677Zm-234.095,8.37a30.768,30.768,0,0,0-9.2,22.2c0,17.915,13.8,31.425,32.1,31.425,9.317,0,17.089-2.98,24.463-9.381l.519-.454-2.007-1.7-.381.333a32.841,32.841,0,0,1-22.6,8.538c-16.766,0-29.408-12.365-29.408-28.763,0-16.3,12.643-28.583,29.408-28.583a32.557,32.557,0,0,1,22.262,8.544l.4.357,2-1.827-.486-.437A35.659,35.659,0,0,0,540.855,2a32.429,32.429,0,0,0-22.9,9.043M125.573,33.429C125.573,17.1,138.69,4.3,155.437,4.3a30.307,30.307,0,0,1,21.58,8.585,28.713,28.713,0,0,1,8.466,20.543c0,16.231-13.2,28.947-30.046,28.947-16.747,0-29.864-12.716-29.864-28.947m6.492-22.436a31.449,31.449,0,0,0-9.18,22.435c0,17.725,14.3,31.61,32.552,31.61a33.072,33.072,0,0,0,23.529-9.331,31.106,31.106,0,0,0,9.2-22.279,31.38,31.38,0,0,0-9.2-22.437,34.075,34.075,0,0,0-46.9,0M42.621,34.074a2.443,2.443,0,0,1-3.124,0L0,1.236V32.758a4.666,4.666,0,0,0,4.661,4.661H17.2l-2.179,29.85L32.14,51.491l-1.686-1.828L18,61.143l1.894-26.21H4.929A2.445,2.445,0,0,1,2.487,32.49V6.537l35.6,29.5a4.664,4.664,0,0,0,5.952,0l35.6-29.56V32.49a2.446,2.446,0,0,1-2.443,2.443H62.227l1.894,26.21L51.665,49.663l-1.686,1.828L67.1,67.269l-2.182-29.85h12.54a4.667,4.667,0,0,0,4.662-4.661V1.236ZM352.028,0,317.992,64.185l3.139,0L352.013,5.776l30.142,58.077.166.321h3.054L352.548,1Z" fill="url(#linear-gradient)"/>
    </clipPath>
  </defs>
  <g id="Raggruppa_74" data-name="Raggruppa 74" clip-path="url(#clip-path)">
    <rect id="Rettangolo_74" data-name="Rettangolo 74" width="755.682" height="67.269" fill="url(#linear-gradient)"/>
  </g>
</svg>
